<svg width="96" height="96" viewBox="0 0 96 96" fill="none" xmlns="http://www.w3.org/2000/svg">
<path d="M18.9531 41.1931L18.6964 41.4498L18.861 41.7734C26.5894 56.9618 39.0395 69.3576 54.2253 77.1383L54.5494 77.3044L54.8069 77.0469L66.5402 65.3136C67.8457 64.0081 69.779 63.5751 71.4645 64.153L71.4698 64.1548C77.4936 66.1448 83.9999 67.22 90.6667 67.22C93.3239 67.22 95.5 69.3961 95.5 72.0533V90.6667C95.5 93.3239 93.3239 95.5 90.6667 95.5C40.8628 95.5 0.5 55.1372 0.5 5.33333C0.5 2.67614 2.67614 0.5 5.33333 0.5H24C26.6572 0.5 28.8333 2.67614 28.8333 5.33333C28.8333 12.0523 29.9082 18.504 31.8974 24.5266C32.4291 26.2226 32.0414 28.1048 30.6864 29.4598L18.9531 41.1931Z" fill="#DF0505"/>
</svg>
